<svg width="19" height="19" viewBox="0 0 19 19" fill="none" xmlns="http://www.w3.org/2000/svg">
<path d="M6.72592 7.99831L8.99549 6.2965L9.00657 3.87671L5.88283 1.57657C4.87857 2.0359 3.96417 2.68351 3.19238 3.49202L4.33845 7.17631L6.72592 7.99831Z" fill="white"/>
<path d="M7.40894 8.7687L8.15295 11.0344H10.8852L11.6623 8.81583L9.50024 7.19989L7.40894 8.7687Z" fill="white"/>
<path d="M12.6764 9.0266L11.8203 11.4689L13.2225 13.7647L17.0874 13.783C17.345 13.3271 17.5748 12.8498 17.7513 12.3371C17.9537 11.7494 18.1216 11.1546 18.1946 10.5608L15.0191 8.27844L12.6764 9.0266Z" fill="white"/>
<path d="M10.0212 6.30829L12.3549 8.05269L14.7106 7.30053L15.9465 3.62145C15.1786 2.77662 14.2367 2.0736 13.1506 1.57474L10.0325 3.85659L10.0212 6.30829Z" fill="white"/>
<path d="M2.40948 4.43127C1.93172 5.09918 1.53795 5.84279 1.25714 6.65785C0.976596 7.4729 0.784984 8.30143 0.75 9.12183L3.32348 7.36928L2.40948 4.43127Z" fill="white"/>
<path d="M7.24264 11.5509L6.3954 8.96936L4.00446 8.1463L0.788452 10.344C0.909027 11.5583 1.32724 12.7259 1.9193 13.7768L5.74806 13.7617L7.24264 11.5509Z" fill="white"/>
<path d="M12.4083 17.7001C13.9786 17.1422 15.3859 16.1545 16.4223 14.8063L13.3371 14.7919L12.4083 17.7001Z" fill="white"/>
<path d="M8.13562 12.0606L6.58496 14.3546L7.7572 18.0361C8.33751 18.1552 8.91969 18.2517 9.49639 18.2517C10.0842 18.2517 10.6602 18.1399 11.2277 18.024L12.3926 14.3753L10.979 12.0606H8.13562Z" fill="white"/>
<path d="M11.9937 1.14965C10.1639 0.603788 8.75763 0.631027 7.02832 1.14631L9.50539 2.97056L11.9937 1.14965Z" fill="white"/>
<path d="M2.58655 14.8003C3.57519 16.0942 4.9349 17.1236 6.57622 17.7089L5.64633 14.7883L2.58655 14.8003Z" fill="white"/>
<path d="M18.2501 9.33307C18.2159 7.62686 17.6454 5.98287 16.7024 4.59485L15.7197 7.51963L18.2501 9.33307Z" fill="white"/>
</svg>
