<svg width="18" height="19" viewBox="0 0 18 19" fill="none" xmlns="http://www.w3.org/2000/svg">
<g clip-path="url(#clip0_37_630)">
<path d="M9.5127 0.75V2.86094C10.9649 2.97233 12.2868 3.54836 13.3309 4.44415L14.7804 2.99462C13.3603 1.73133 11.5293 0.868159 9.5127 0.75V0.75Z" fill="white"/>
<path d="M8.48732 0.75C6.47071 0.868159 4.6397 1.73133 3.2196 2.99462L4.66913 4.44415C5.71326 3.54836 7.03509 2.97233 8.48732 2.86094V0.75Z" fill="white"/>
<path d="M2.36094 8.98732C2.47233 7.53509 3.04836 6.21326 3.94415 5.16913L2.49462 3.7196C1.23133 5.1397 0.368159 6.97071 0.25 8.98732H2.36094Z" fill="white"/>
<path d="M9 7.14883L7.18755 8.96128C6.98777 9.16154 6.98777 9.48649 7.18755 9.68678C7.38231 9.88154 7.71878 9.88055 7.91254 9.68678L9 8.59929L10.0875 9.68675C10.2822 9.88051 10.6192 9.88051 10.8119 9.68675C11.0122 9.48649 11.0122 9.16154 10.8124 8.96125L9 7.14883Z" fill="white"/>
<path d="M9.00001 3.86035C5.8903 3.86035 3.36035 6.3903 3.36035 9.50001C3.36035 12.6097 5.8903 15.1397 9.00001 15.1397C12.1097 15.1397 14.6397 12.6097 14.6397 9.50001C14.6397 6.3903 12.1097 3.86035 9.00001 3.86035ZM11.5374 10.4118C11.0066 10.9435 10.1501 11.0303 9.5127 10.5352V12.0635H10.5381V13.0889H7.46192V12.0635H8.48731V10.5093C7.89412 10.9668 6.99909 10.9488 6.46206 10.4118C5.86275 9.81193 5.86275 8.8361 6.46257 8.23631L9.00001 5.69885L11.5374 8.23628C12.1373 8.8361 12.1373 9.81193 11.5374 10.4118Z" fill="white"/>
<path d="M13.3309 14.5559C12.2868 15.4517 10.9649 16.0277 9.5127 16.1391V18.25C11.5293 18.1319 13.3603 17.2687 14.7804 16.0054L13.3309 14.5559Z" fill="white"/>
<path d="M14.0559 13.8309L15.5054 15.2804C16.7687 13.8603 17.6319 12.0293 17.7501 10.0127H15.6391C15.5277 11.4649 14.9517 12.7868 14.0559 13.8309Z" fill="white"/>
<path d="M14.0559 5.16913C14.9517 6.21322 15.5277 7.53509 15.6391 8.98732H17.7501C17.6319 6.97071 16.7687 5.1397 15.5054 3.7196L14.0559 5.16913Z" fill="white"/>
<path d="M3.94415 13.8309C3.04836 12.7868 2.47233 11.4649 2.36094 10.0127H0.25C0.368159 12.0293 1.23133 13.8603 2.49462 15.2804L3.94415 13.8309Z" fill="white"/>
<path d="M3.2196 16.0054C4.6397 17.2687 6.47071 18.1319 8.48732 18.25V16.1391C7.03509 16.0277 5.71326 15.4517 4.66913 14.5559L3.2196 16.0054Z" fill="white"/>
</g>
<defs>
<clipPath id="clip0_37_630">
<rect width="17.5" height="17.5" fill="white" transform="translate(0.25 0.75)"/>
</clipPath>
</defs>
</svg>
