<svg width="20" height="21" viewBox="0 0 20 21" fill="none" xmlns="http://www.w3.org/2000/svg">
<path d="M17.2119 10.0215H2.78809C1.93995 10.0215 1.25 10.7114 1.25 11.5595V17.7119C1.25 18.56 1.93995 19.25 2.78809 19.25H17.2119C18.0601 19.25 18.75 18.56 18.75 17.7119V11.5595C18.75 10.7114 18.0601 10.0215 17.2119 10.0215ZM5.89844 17.1992H3.84766C3.56428 17.1992 3.33496 16.9699 3.33496 16.6865V12.5849C3.33496 12.3016 3.56428 12.0722 3.84766 12.0722C4.13104 12.0722 4.36036 12.3016 4.36036 12.5849V16.1738H5.89844C6.18183 16.1738 6.41114 16.4031 6.41114 16.6865C6.41114 16.9699 6.18183 17.1992 5.89844 17.1992ZM8.46192 16.6865C8.46192 16.9699 8.23261 17.1992 7.94923 17.1992C7.66584 17.1992 7.43653 16.9699 7.43653 16.6865V12.5849C7.43653 12.3016 7.66584 12.0722 7.94923 12.0722C8.23261 12.0722 8.46192 12.3016 8.46192 12.5849V16.6865ZM12.548 12.7091L11.5226 16.8107C11.4655 17.039 11.2607 17.1992 11.0254 17.1992C10.7901 17.1992 10.5853 17.039 10.5282 16.8107L9.50283 12.7091C9.43376 12.4347 9.60096 12.1564 9.87584 12.0878C10.1497 12.0167 10.4286 12.1859 10.4972 12.4608L11.0254 14.5727L11.5536 12.4608C11.6217 12.1859 11.9001 12.0162 12.175 12.0878C12.4498 12.1564 12.6171 12.4347 12.548 12.7091ZM16.1524 14.123C16.4357 14.123 16.6651 14.3523 16.6651 14.6357C16.6651 14.9191 16.4357 15.1484 16.1524 15.1484H14.6143V16.1738H16.1524C16.4357 16.1738 16.6651 16.4031 16.6651 16.6865C16.6651 16.9699 16.4357 17.1992 16.1524 17.1992H14.1016C13.8182 17.1992 13.5889 16.9699 13.5889 16.6865V12.5849C13.5889 12.3016 13.8182 12.0722 14.1016 12.0722H16.1524C16.4357 12.0722 16.6651 12.3016 16.6651 12.5849C16.6651 12.8683 16.4357 13.0976 16.1524 13.0976H14.6143V14.123H16.1524Z" fill="white"/>
<path d="M5.48776 8.72299C3.99171 6.73027 3.99171 3.9475 5.48776 1.95478C5.6575 1.72899 5.97944 1.68241 6.20574 1.85266C6.43204 2.0229 6.47761 2.34433 6.30787 2.57063C5.08372 4.20036 5.08372 6.47745 6.30787 8.10714C6.47761 8.33344 6.43204 8.65487 6.20574 8.82512C5.98039 8.99417 5.65832 8.95035 5.48776 8.72299Z" fill="white"/>
<path d="M13.7941 8.82517C13.5678 8.65496 13.5222 8.3335 13.6919 8.10719C14.9161 6.47747 14.9161 4.20038 13.6919 2.57069C13.5222 2.34439 13.5678 2.02296 13.7941 1.85271C14.0204 1.68297 14.3428 1.72905 14.512 1.95484C16.0081 3.94755 16.0081 6.73033 14.512 8.72304C14.3418 8.95006 14.0199 8.9945 13.7941 8.82517Z" fill="white"/>
<path d="M7.32468 7.73154C6.10303 6.3677 6.10303 4.30991 7.32468 2.94603C7.51394 2.73525 7.8394 2.71823 8.04868 2.90597C8.25946 3.09472 8.27748 3.41918 8.08874 3.62997C7.21654 4.6043 7.21654 6.07327 8.08874 7.0476C8.27748 7.25839 8.25946 7.58282 8.04868 7.7716C7.83861 7.9601 7.51363 7.94294 7.32468 7.73154Z" fill="white"/>
<path d="M11.9514 7.77161C11.7406 7.58287 11.7226 7.2584 11.9113 7.04762C12.7835 6.07329 12.7835 4.60431 11.9113 3.62999C11.7226 3.4192 11.7406 3.09477 11.9514 2.90599C12.1617 2.71773 12.4866 2.73475 12.6754 2.94605C13.897 4.30989 13.897 6.36768 12.6754 7.73156C12.4865 7.94289 12.1615 7.96015 11.9514 7.77161Z" fill="white"/>
<path d="M10 6.8769C9.15187 6.8769 8.46191 6.18694 8.46191 5.33881C8.46191 4.49067 9.15187 3.80072 10 3.80072C10.8481 3.80072 11.5381 4.49067 11.5381 5.33881C11.5381 6.18694 10.8482 6.8769 10 6.8769Z" fill="white"/>
</svg>
