<svg width="20" height="20" viewBox="0 0 20 20" fill="none" xmlns="http://www.w3.org/2000/svg">
<path d="M17.2119 9.52145H2.78809C1.93995 9.52145 1.25 10.2114 1.25 11.0595V17.2119C1.25 18.06 1.93995 18.75 2.78809 18.75H17.2119C18.0601 18.75 18.75 18.06 18.75 17.2119V11.0595C18.75 10.2114 18.0601 9.52145 17.2119 9.52145ZM5.89844 16.6992H3.84766C3.56428 16.6992 3.33496 16.4699 3.33496 16.1865V12.0849C3.33496 11.8016 3.56428 11.5722 3.84766 11.5722C4.13104 11.5722 4.36036 11.8016 4.36036 12.0849V15.6738H5.89844C6.18183 15.6738 6.41114 15.9031 6.41114 16.1865C6.41114 16.4699 6.18183 16.6992 5.89844 16.6992ZM8.46192 16.1865C8.46192 16.4699 8.23261 16.6992 7.94923 16.6992C7.66584 16.6992 7.43653 16.4699 7.43653 16.1865V12.0849C7.43653 11.8016 7.66584 11.5722 7.94923 11.5722C8.23261 11.5722 8.46192 11.8016 8.46192 12.0849V16.1865ZM12.548 12.2091L11.5226 16.3107C11.4655 16.539 11.2607 16.6992 11.0254 16.6992C10.7901 16.6992 10.5853 16.539 10.5282 16.3107L9.50283 12.2091C9.43376 11.9347 9.60096 11.6564 9.87584 11.5878C10.1497 11.5167 10.4286 11.6859 10.4972 11.9608L11.0254 14.0727L11.5536 11.9608C11.6217 11.6859 11.9001 11.5162 12.175 11.5878C12.4498 11.6564 12.6171 11.9347 12.548 12.2091ZM16.1524 13.623C16.4357 13.623 16.6651 13.8523 16.6651 14.1357C16.6651 14.4191 16.4357 14.6484 16.1524 14.6484H14.6143V15.6738H16.1524C16.4357 15.6738 16.6651 15.9031 16.6651 16.1865C16.6651 16.4699 16.4357 16.6992 16.1524 16.6992H14.1016C13.8182 16.6992 13.5889 16.4699 13.5889 16.1865V12.0849C13.5889 11.8016 13.8182 11.5722 14.1016 11.5722H16.1524C16.4357 11.5722 16.6651 11.8016 16.6651 12.0849C16.6651 12.3683 16.4357 12.5976 16.1524 12.5976H14.6143V13.623H16.1524Z" fill="#808792"/>
<path d="M5.48776 8.22299C3.99171 6.23027 3.99171 3.4475 5.48776 1.45478C5.6575 1.22899 5.97944 1.18241 6.20574 1.35266C6.43204 1.5229 6.47761 1.84433 6.30787 2.07063C5.08372 3.70036 5.08372 5.97745 6.30787 7.60714C6.47761 7.83344 6.43204 8.15487 6.20574 8.32512C5.98039 8.49417 5.65832 8.45035 5.48776 8.22299Z" fill="#808792"/>
<path d="M13.7942 8.32517C13.5679 8.15496 13.5223 7.8335 13.6921 7.60719C14.9162 5.97747 14.9162 3.70038 13.6921 2.07069C13.5223 1.84439 13.5679 1.52296 13.7942 1.35271C14.0205 1.18297 14.3429 1.22905 14.5122 1.45484C16.0082 3.44755 16.0082 6.23033 14.5122 8.22304C14.3419 8.45006 14.02 8.4945 13.7942 8.32517Z" fill="#808792"/>
<path d="M7.32468 7.23154C6.10303 5.8677 6.10303 3.80991 7.32468 2.44603C7.51394 2.23525 7.8394 2.21823 8.04868 2.40597C8.25946 2.59472 8.27748 2.91918 8.08874 3.12997C7.21654 4.1043 7.21654 5.57327 8.08874 6.5476C8.27748 6.75839 8.25946 7.08282 8.04868 7.2716C7.83861 7.4601 7.51363 7.44294 7.32468 7.23154Z" fill="#808792"/>
<path d="M11.9513 7.27161C11.7405 7.08287 11.7225 6.75841 11.9112 6.54762C12.7834 5.57329 12.7834 4.10431 11.9112 3.12999C11.7225 2.9192 11.7405 2.59477 11.9513 2.40599C12.1616 2.21773 12.4865 2.23475 12.6753 2.44605C13.8969 3.80989 13.8969 5.86768 12.6753 7.23156C12.4864 7.44289 12.1614 7.46015 11.9513 7.27161Z" fill="#808792"/>
<path d="M10 6.3769C9.15187 6.3769 8.46191 5.68694 8.46191 4.83881C8.46191 3.99067 9.15187 3.30072 10 3.30072C10.8481 3.30072 11.5381 3.99067 11.5381 4.83881C11.5381 5.68694 10.8482 6.3769 10 6.3769Z" fill="#808792"/>
</svg>
