<svg width="14" height="18" viewBox="0 0 14 18" fill="none" xmlns="http://www.w3.org/2000/svg">
<path d="M5.66701 11.271L7.00001 10.271L8.27101 11.25C8.43767 11.3753 8.60767 11.3787 8.78101 11.26C8.95501 11.142 9.00734 10.986 8.93801 10.792L8.43801 9.18799L9.75001 8.14599C9.93067 8.00733 9.98267 7.83366 9.90601 7.62499C9.83001 7.41633 9.68067 7.31199 9.45801 7.31199H7.93801L7.41701 5.70799C7.34701 5.51399 7.20801 5.41699 7.00001 5.41699C6.79201 5.41699 6.65301 5.51399 6.58301 5.70799L6.06201 7.31199H4.52101C4.29901 7.31199 4.14967 7.41633 4.07301 7.62499C3.99634 7.83366 4.04834 8.00733 4.22901 8.14599L5.50001 9.18799L5.00001 10.792C4.93067 10.986 4.98267 11.1457 5.15601 11.271C5.33001 11.3957 5.50034 11.3957 5.66701 11.271ZM7.00001 17.271C6.91667 17.271 6.84034 17.2673 6.77101 17.26C6.70167 17.2533 6.63201 17.236 6.56201 17.208C4.74267 16.6387 3.24967 15.5137 2.08301 13.833C0.916341 12.1523 0.333008 10.2983 0.333008 8.27099V4.35399C0.333008 3.99266 0.437341 3.66299 0.646008 3.36499C0.854008 3.06633 1.13167 2.85433 1.47901 2.72899L6.39601 0.895992C6.59067 0.826659 6.79201 0.791992 7.00001 0.791992C7.20801 0.791992 7.40934 0.826659 7.60401 0.895992L12.521 2.72899C12.8683 2.85433 13.146 3.06633 13.354 3.36499C13.5627 3.66299 13.667 3.99266 13.667 4.35399V8.27099C13.667 10.2983 13.0837 12.1523 11.917 13.833C10.7503 15.5137 9.25734 16.6387 7.43801 17.208C7.39601 17.222 7.25001 17.243 7.00001 17.271Z" fill="#B98D1B"/>
</svg>
