<svg width="18" height="18" viewBox="0 0 18 18" fill="none" xmlns="http://www.w3.org/2000/svg">
<path d="M9.00008 17.3333C7.8473 17.3333 6.76397 17.1144 5.75008 16.6767C4.73619 16.2394 3.85425 15.6458 3.10425 14.8958C2.35425 14.1458 1.76064 13.2639 1.32341 12.25C0.885637 11.2361 0.666748 10.1528 0.666748 9C0.666748 7.84722 0.885637 6.76389 1.32341 5.75C1.76064 4.73611 2.35425 3.85416 3.10425 3.10416C3.85425 2.35416 4.73619 1.76028 5.75008 1.3225C6.76397 0.885275 7.8473 0.666664 9.00008 0.666664C10.1529 0.666664 11.2362 0.885275 12.2501 1.3225C13.264 1.76028 14.1459 2.35416 14.8959 3.10416C15.6459 3.85416 16.2395 4.73611 16.6767 5.75C17.1145 6.76389 17.3334 7.84722 17.3334 9C17.3334 10.1528 17.1145 11.2361 16.6767 12.25C16.2395 13.2639 15.6459 14.1458 14.8959 14.8958C14.1459 15.6458 13.264 16.2394 12.2501 16.6767C11.2362 17.1144 10.1529 17.3333 9.00008 17.3333ZM13.1667 6.91666L14.2917 6.54166L14.6251 5.41666C14.1806 4.75 13.6459 4.17694 13.0209 3.6975C12.3959 3.21861 11.7084 2.86111 10.9584 2.625L9.83341 3.41666V4.58333L13.1667 6.91666ZM4.83341 6.91666L8.16675 4.58333V3.41666L7.04175 2.625C6.29175 2.86111 5.60425 3.21861 4.97925 3.6975C4.35425 4.17694 3.81953 4.75 3.37508 5.41666L3.70841 6.54166L4.83341 6.91666ZM3.95841 13.3333L4.91675 13.25L5.54175 12.125L4.33341 8.5L3.16675 8.08333L2.33341 8.70833C2.33341 9.61111 2.45841 10.4339 2.70841 11.1767C2.95841 11.92 3.37508 12.6389 3.95841 13.3333ZM9.00008 15.6667C9.36119 15.6667 9.71536 15.6389 10.0626 15.5833C10.4098 15.5278 10.7501 15.4444 11.0834 15.3333L11.6667 14.0833L11.1251 13.1667H6.87508L6.33341 14.0833L6.91675 15.3333C7.25008 15.4444 7.59036 15.5278 7.93758 15.5833C8.2848 15.6389 8.63897 15.6667 9.00008 15.6667ZM7.12508 11.5H10.8751L12.0417 8.16666L9.00008 6.04166L6.00008 8.16666L7.12508 11.5ZM14.0417 13.3333C14.6251 12.6389 15.0417 11.92 15.2917 11.1767C15.5417 10.4339 15.6667 9.61111 15.6667 8.70833L14.8334 8.125L13.6667 8.5L12.4584 12.125L13.0834 13.25L14.0417 13.3333Z" fill="white" fill-opacity="0.6"/>
</svg>
