<svg width="20" height="20" viewBox="0 0 20 20" fill="none" xmlns="http://www.w3.org/2000/svg">
<path d="M7.2258 8.49827L9.49537 6.79647L9.50645 4.37668L6.38271 2.07654C5.37845 2.53587 4.46405 3.18348 3.69226 3.99199L4.83833 7.67628L7.2258 8.49827Z" fill="#1BB96B"/>
<path d="M7.90857 9.26876L8.65258 11.5344H11.3848L12.1619 9.31589L9.99987 7.69995L7.90857 9.26876Z" fill="#1BB96B"/>
<path d="M13.176 9.52666L12.3199 11.969L13.7221 14.2647L17.5871 14.283C17.8446 13.8272 18.0744 13.3498 18.251 12.8372C18.4534 12.2494 18.6212 11.6547 18.6943 11.0609L15.5187 8.7785L13.176 9.52666Z" fill="#1BB96B"/>
<path d="M10.5215 6.80822L12.8551 8.55263L15.2108 7.80047L16.4468 4.12139C15.6789 3.27656 14.7369 2.57354 13.6508 2.07468L10.5327 4.35653L10.5215 6.80822Z" fill="#1BB96B"/>
<path d="M2.90948 4.93121C2.43172 5.59912 2.03795 6.34273 1.75714 7.15778C1.4766 7.97284 1.28498 8.80137 1.25 9.62177L3.82348 7.86922L2.90948 4.93121Z" fill="#1BB96B"/>
<path d="M7.74276 12.0509L6.89553 9.4694L4.50458 8.64633L1.28857 10.8441C1.40915 12.0584 1.82736 13.2259 2.41942 14.2768L6.24819 14.2617L7.74276 12.0509Z" fill="#1BB96B"/>
<path d="M12.9081 18.2001C14.4784 17.6422 15.8856 16.6545 16.9221 15.3063L13.8369 15.2919L12.9081 18.2001Z" fill="#1BB96B"/>
<path d="M8.63562 12.5605L7.08496 14.8545L8.2572 18.536C8.83751 18.6551 9.41969 18.7517 9.99639 18.7517C10.5842 18.7517 11.1602 18.6399 11.7277 18.524L12.8926 14.8752L11.479 12.5605H8.63562Z" fill="#1BB96B"/>
<path d="M12.494 1.64965C10.6643 1.10379 9.258 1.13103 7.52869 1.64631L10.0058 3.47056L12.494 1.64965Z" fill="#1BB96B"/>
<path d="M3.08643 15.3003C4.07506 16.5941 5.43477 17.6235 7.07609 18.2088L6.14621 15.2882L3.08643 15.3003Z" fill="#1BB96B"/>
<path d="M18.7502 9.83301C18.716 8.1268 18.1455 6.48281 17.2025 5.09479L16.2198 8.01957L18.7502 9.83301Z" fill="#1BB96B"/>
</svg>
